<svg width="374" height="88" viewBox="0 0 374 88" fill="none" xmlns="http://www.w3.org/2000/svg">
<mask id="mask0_6101_4417" style="mask-type:alpha" x="0" y="0" width="374" height="88">
<rect width="374" height="88" fill="#D9D9D9"/>
</mask>
<g mask="url(#mask0_6101_4417)">
<g clip-path="url(#clip0_6101_4417)">
<path d="M12.2009 49.495C12.2625 48.7465 12.4963 48.0213 12.8848 47.3734C13.2733 46.7255 13.8066 46.1716 14.4447 45.7531C15.0829 45.3345 15.8095 45.0621 16.5705 44.9562C17.3314 44.8502 18.107 44.9134 18.8395 45.1411C24.0906 46.7638 29.321 48.4217 34.5308 50.1149C34.9977 50.2708 35.4005 50.5699 35.6794 50.9676C35.9582 51.3653 36.0981 51.8404 36.0783 52.322C36.0783 53.8338 36.0783 55.3456 36.1866 56.6457C36.3104 58.5354 36.6508 61.574 36.8829 63.6603C36.9151 63.9572 36.8869 64.2574 36.8 64.5436C36.713 64.8298 36.5691 65.0965 36.3764 65.3282C36.1838 65.56 35.9462 65.7523 35.6773 65.8941C35.4083 66.0359 35.1134 66.1245 34.8093 66.1547C28.6195 66.7745 19.7834 67.9084 15.6208 68.4526C15.3141 68.4949 15.0018 68.4763 14.7026 68.3981C14.4035 68.3199 14.1235 68.1836 13.8794 67.9973C13.6353 67.8111 13.4321 67.5787 13.282 67.3141C13.1319 67.0494 13.0378 66.758 13.0055 66.4571C12.6496 63.2068 12.2009 59.2157 12.2009 59.2157C11.907 55.9818 11.907 52.7289 12.2009 49.495" fill="white"/>
<path d="M37.7502 43.2063C39.1485 39.2964 41.3318 35.6986 44.1722 32.6239C44.5081 32.256 44.7113 31.7906 44.7504 31.299C44.7895 30.8075 44.6625 30.317 44.3888 29.9028C41.5415 25.5589 38.6683 21.2252 35.7694 16.9015C35.3579 16.2825 34.8105 15.7607 34.167 15.374C33.5234 14.9873 32.7998 14.7453 32.0487 14.6657C31.2976 14.5861 30.5377 14.6709 29.8242 14.9138C29.1108 15.1567 28.4616 15.5516 27.9238 16.07C22.9608 20.9238 18.9949 26.6609 16.2404 32.9716C15.9475 33.6062 15.796 34.2942 15.7959 34.9903C15.7958 35.6863 15.947 36.3744 16.2396 37.0091C16.5323 37.6437 16.9596 38.2103 17.4933 38.6715C18.0269 39.1326 18.6548 39.4777 19.3353 39.6839C24.4936 41.2662 29.6518 42.8939 34.81 44.5669C35.3848 44.7511 36.0106 44.7089 36.554 44.4491C37.0974 44.1893 37.5155 43.7326 37.7192 43.1761" fill="white"/>
<path d="M343.653 86.7764C339.359 86.8082 335.078 86.3001 330.917 85.2646C330.267 85.1134 329.679 84.8111 329.679 84.2668V76.708C329.679 76.1487 329.973 75.6044 330.917 75.6951C333.408 75.9067 339.737 76.5568 343.653 76.5568C345.355 76.5568 345.834 75.9068 345.834 75.0451C345.834 74.5311 345.54 74.138 344.179 73.5333L335.296 69.1492C329.679 66.3826 328.193 62.6486 328.193 58.5668C328.193 53.0791 331.691 48.3321 344.055 48.3321C348.889 48.3237 353.712 48.7999 358.446 49.7532C359.096 49.9043 359.622 50.2067 359.622 50.7509V58.3098C359.622 58.9145 359.452 59.4134 358.446 59.3075C355.351 59.0203 348.496 58.5668 344.055 58.5668C343.049 58.5668 342.817 58.9598 342.817 59.368C342.817 59.7762 343.049 60.1239 345.014 60.9705L353.417 64.7499C358.74 67.1687 360.984 70.4493 360.984 74.7881C360.984 80.684 356.079 86.8822 343.653 86.8822" fill="white"/>
<path d="M312.704 37.9307H302.584C302.196 37.9232 301.817 37.8176 301.483 37.6242C301.149 37.4307 300.873 37.1561 300.68 36.8271L290.916 22.9642C290.746 22.7223 290.622 22.5712 290.328 22.5712C290.034 22.5712 290.034 22.6618 290.034 23.0247V36.933C289.995 37.2215 289.846 37.485 289.616 37.6702C289.386 37.8554 289.093 37.9485 288.796 37.9307H277.963C277.664 37.9489 277.369 37.8562 277.137 37.6713C276.905 37.4864 276.752 37.2228 276.71 36.933V2.26813C276.75 1.76674 276.989 1.30053 277.377 0.969783C277.765 0.639033 278.27 0.470126 278.784 0.499339H288.486C288.953 0.529302 289.405 0.673851 289.8 0.919587C290.195 1.16532 290.52 1.50431 290.745 1.90527L300.68 15.8136C300.974 16.2671 301.16 16.2671 301.284 16.2671C301.408 16.2671 301.578 16.2671 301.578 15.8136V1.51224C301.598 1.2261 301.732 0.959173 301.953 0.769509C302.173 0.579844 302.461 0.482746 302.754 0.499339H313.586C313.881 0.482601 314.17 0.579236 314.393 0.76854C314.616 0.957843 314.754 1.22479 314.778 1.51224V36.1771C314.73 36.6743 314.488 37.1344 314.102 37.4612C313.715 37.788 313.215 37.9563 312.704 37.9307" fill="white"/>
<path d="M321.71 86.2325C319.281 86.4744 314.963 86.7768 309.81 86.7768C302.351 86.7768 293.887 85.265 293.887 74.985V60.1243C293.887 49.7989 302.351 48.3325 309.81 48.3325C313.784 48.321 317.756 48.5077 321.71 48.8919C322.001 48.8829 322.285 48.9827 322.503 49.1709C322.722 49.359 322.859 49.6214 322.886 49.9047V57.4636C322.862 57.747 322.726 58.0101 322.506 58.1966C322.287 58.3831 322.001 58.4781 321.71 58.4613H309.81C308.263 58.4613 307.86 58.8242 307.86 60.0789V62.8606H321.71C322.003 62.844 322.291 62.9411 322.511 63.1308C322.732 63.3204 322.866 63.5873 322.886 63.8735V70.9788C322.862 71.2622 322.726 71.5253 322.506 71.7118C322.287 71.8982 322.001 71.9933 321.71 71.9765H307.86V75.0001C307.86 76.27 308.325 76.6177 309.81 76.6177H321.71C322.003 76.6011 322.291 76.6982 322.511 76.8879C322.732 77.0775 322.866 77.3444 322.886 77.6305V85.1894C322.855 85.4713 322.717 85.7317 322.5 85.9192C322.282 86.1066 322 86.2077 321.71 86.2023" fill="white"/>
<path d="M176.526 38.4442C166.7 38.4442 157.709 34.2566 157.709 21.4066V17.0225C157.709 4.17245 166.7 0 176.526 0C186.353 0 195.359 4.17245 195.359 17.0225V21.4066C195.359 34.2566 186.353 38.4442 176.526 38.4442ZM181.169 17.0225C181.169 12.2302 179.822 10.4765 176.526 10.4765C173.23 10.4765 171.884 12.2302 171.884 17.0225V21.4066C171.884 26.1989 173.246 27.9526 176.526 27.9526C179.807 27.9526 181.169 26.1989 181.169 21.4066V17.0225Z" fill="white"/>
<path d="M237.977 1.5129L230.936 31.9447C229.76 37.0848 225.195 38.4454 217.968 38.4454C210.741 38.4454 206.192 37.0848 205.016 31.9447L197.975 1.5129C197.851 0.953551 198.083 0.5 198.857 0.5H211.237C211.531 0.502165 211.816 0.60441 212.042 0.789223C212.268 0.974037 212.421 1.22992 212.475 1.5129L217.504 28.1653C217.504 28.5584 217.628 28.8154 218.03 28.8154C218.432 28.8154 218.51 28.5584 218.572 28.1653L223.601 1.5129C223.655 1.22992 223.808 0.974037 224.034 0.789223C224.259 0.60441 224.544 0.502165 224.839 0.5H237.218C237.992 0.5 238.224 0.953551 238.101 1.5129" fill="white"/>
<path d="M268.756 37.8849C264.802 38.269 260.83 38.4557 256.856 38.4442C249.397 38.4442 240.933 36.9324 240.933 26.6524V11.7918C240.933 1.45128 249.397 0 256.856 0C262.009 0 266.327 0.302331 268.756 0.544214C269.046 0.538822 269.328 0.639855 269.546 0.827348C269.763 1.01484 269.901 1.27521 269.932 1.55712V9.11596C269.912 9.4021 269.778 9.66898 269.557 9.85865C269.337 10.0483 269.049 10.1454 268.756 10.1288H256.856C255.309 10.1288 254.906 10.4765 254.906 11.7464V14.4827H268.833C269.127 14.4661 269.414 14.5632 269.635 14.7529C269.855 14.9425 269.99 15.2095 270.01 15.4956V22.6009C269.99 22.887 269.855 23.154 269.635 23.3436C269.414 23.5333 269.127 23.6304 268.833 23.6138H254.906V26.6373C254.906 27.8921 255.386 28.2398 256.856 28.2398H268.756C269.049 28.2232 269.337 28.3203 269.557 28.51C269.778 28.6996 269.912 28.9665 269.932 29.2527V36.8115C269.905 37.0948 269.768 37.3573 269.549 37.5454C269.331 37.7336 269.047 37.8334 268.756 37.8244" fill="white"/>
<path d="M192.806 85.368C188.145 86.2566 183.41 86.7272 178.662 86.7739C171.141 86.7739 159.829 84.2039 159.829 69.6909V65.4127C159.829 50.6578 171.373 48.3297 179.25 48.3297C183.816 48.265 188.372 48.7731 192.806 49.8415C193.982 50.1438 194.044 50.295 194.044 50.945V58.3527C194.044 59.1086 193.873 59.3505 193.038 59.2598C191.258 59.0481 186.229 58.7458 182.561 58.7458C176.108 58.7458 173.973 59.804 173.973 65.3522V69.7363C173.973 76.3427 176.882 76.5393 178.615 76.5393C179.268 76.5409 179.921 76.4904 180.565 76.3881V67.3175C180.585 67.0314 180.72 66.7644 180.94 66.5748C181.16 66.3851 181.448 66.288 181.741 66.3046H192.821C193.114 66.288 193.402 66.3851 193.622 66.5748C193.843 66.7644 193.977 67.0314 193.997 67.3175V84.2039C193.997 85.0505 193.827 85.111 192.759 85.3075" fill="white"/>
<path d="M225.287 86.2774C224.992 86.2752 224.708 86.173 224.482 85.9881C224.256 85.8033 224.103 85.5475 224.049 85.2645L222.981 79.6256H213.99L212.923 85.2645C212.869 85.5475 212.716 85.8033 212.49 85.9881C212.264 86.173 211.979 86.2752 211.685 86.2774H199.305C198.531 86.2774 198.299 85.8239 198.423 85.2645L205.464 54.8326C206.656 49.6926 211.205 48.332 218.432 48.332C225.658 48.332 230.208 49.6926 231.384 54.8326L238.425 85.2645C238.549 85.8239 238.317 86.2774 237.543 86.2774H225.287ZM219.02 58.612C219.02 58.219 218.896 57.962 218.494 57.962C218.091 57.962 218.014 58.219 217.952 58.612L215.77 70.4189H221.217L219.02 58.612Z" fill="white"/>
<path d="M286.397 86.2752H274.744C274.496 86.2485 274.269 86.127 274.112 85.9372C273.956 85.7474 273.882 85.5047 273.908 85.2623V69.4946C273.908 69.0864 273.909 69.041 273.553 69.041C273.197 69.041 273.197 69.1922 272.965 69.4946L268.585 75.0427C267.997 75.7986 267.641 75.9952 267.038 75.9952H263.602C262.952 75.9952 262.597 75.7986 262.055 75.0427L257.676 69.4946C257.428 69.1922 257.32 69.041 257.072 69.041C256.824 69.041 256.716 69.041 256.716 69.4946V85.2623C256.731 85.3815 256.722 85.5025 256.689 85.6182C256.656 85.7339 256.599 85.8421 256.523 85.9363C256.447 86.0305 256.352 86.109 256.244 86.1671C256.137 86.2253 256.018 86.262 255.896 86.2752H244.228C243.826 86.2752 243.284 86.2752 243.284 85.7158V50.5975C243.328 50.0988 243.569 49.6364 243.956 49.3088C244.343 48.9813 244.846 48.8144 245.358 48.8438H253.095C253.77 48.7755 254.451 48.8954 255.059 49.1897C255.667 49.4841 256.177 49.9407 256.53 50.5067L264.639 61.6334C264.871 61.9811 265.103 62.1927 265.351 62.1927C265.599 62.1927 265.815 61.9811 266.063 61.6334L274.172 50.5067C274.523 49.9394 275.033 49.4817 275.642 49.1872C276.25 48.8928 276.932 48.7737 277.607 48.8438H285.344C285.853 48.8185 286.352 48.9872 286.736 49.3144C287.12 49.6415 287.359 50.1016 287.402 50.5975V85.7158C287.402 86.2752 286.876 86.2752 286.458 86.2752" fill="white"/>
<path d="M98.5648 43.2063C97.1665 39.2964 94.9832 35.6986 92.1428 32.6239C91.8069 32.256 91.6037 31.7906 91.5646 31.299C91.5254 30.8075 91.6525 30.317 91.9262 29.9028C94.7735 25.5589 97.6466 21.2252 100.546 16.9015C100.957 16.2825 101.504 15.7607 102.148 15.374C102.792 14.9873 103.515 14.7453 104.266 14.6657C105.017 14.5861 105.777 14.6709 106.491 14.9138C107.204 15.1567 107.853 15.5516 108.391 16.07C113.359 20.9197 117.326 26.6579 120.075 32.9716C120.367 33.6062 120.519 34.2942 120.519 34.9903C120.519 35.6863 120.368 36.3744 120.075 37.0091C119.783 37.6437 119.355 38.2103 118.822 38.6715C118.288 39.1326 117.66 39.4777 116.98 39.6839C111.821 41.2662 106.663 42.8939 101.505 44.5669C100.93 44.7511 100.304 44.7089 99.7611 44.4491C99.2177 44.1893 98.7996 43.7326 98.5958 43.1761" fill="white"/>
<path d="M96.3062 13.259C96.6974 12.6756 96.9587 12.0183 97.073 11.3298C97.1873 10.6413 97.1521 9.937 96.9697 9.26267C96.7873 8.58833 96.4617 7.95902 96.0142 7.41559C95.5666 6.87216 95.0071 6.42677 94.3719 6.10834C86.2477 2.09248 77.2705 0 68.1655 0C59.0606 0 50.0833 2.09248 41.9592 6.10834C41.324 6.42677 40.7644 6.87216 40.3169 7.41559C39.8693 7.95902 39.5438 8.58833 39.3614 9.26267C39.1789 9.937 39.1438 10.6413 39.2581 11.3298C39.3724 12.0183 39.6336 12.6756 40.0248 13.259C42.8619 17.502 45.6679 21.7602 48.4431 26.0335C48.7618 26.5233 49.264 26.8718 49.8424 27.0046C50.4207 27.1374 51.0293 27.0438 51.538 26.744C56.5704 23.8349 62.3104 22.3001 68.1578 22.3001C74.0052 22.3001 79.7452 23.8349 84.7776 26.744C85.2872 27.04 85.8946 27.1313 86.4718 26.9988C87.049 26.8663 87.5511 26.5203 87.8725 26.0335C90.4258 22.118 93.8922 16.9628 96.3062 13.259Z" fill="white"/>
<path d="M124.237 49.495C124.176 48.7465 123.942 48.0213 123.553 47.3734C123.165 46.7255 122.632 46.1716 121.994 45.7531C121.355 45.3345 120.629 45.0621 119.868 44.9562C119.107 44.8502 118.331 44.9134 117.599 45.1411C112.337 46.7638 107.107 48.4217 101.907 50.1149C101.443 50.2749 101.043 50.575 100.765 50.9717C100.487 51.3685 100.345 51.8414 100.36 52.322C100.36 53.8338 100.36 55.3456 100.267 56.6457C100.128 58.5354 99.8029 61.5589 99.5708 63.6451C99.5344 63.9447 99.56 64.2484 99.646 64.5382C99.732 64.8279 99.8767 65.0978 100.072 65.3319C100.266 65.566 100.507 65.7594 100.78 65.9008C101.053 66.0421 101.352 66.1284 101.66 66.1547C108.056 66.7392 114.437 67.4901 120.802 68.4073C121.111 68.454 121.427 68.4387 121.729 68.3626C122.032 68.2864 122.316 68.1509 122.563 67.9643C122.811 67.7776 123.017 67.5437 123.169 67.2768C123.321 67.0099 123.416 66.7156 123.448 66.4117L124.253 59.2157C124.539 55.9815 124.539 52.7292 124.253 49.495" fill="white"/>
<path d="M68.204 70.0117C50.7354 70.0114 33.2901 71.2595 16.0079 73.7458C15.4136 73.8322 14.8766 74.1404 14.5101 74.6056C14.1436 75.0708 13.976 75.6568 14.0426 76.2402C14.3057 78.6741 14.7545 82.7408 15.1104 85.976C15.1446 86.2775 15.2405 86.5693 15.3922 86.834C15.544 87.0987 15.7486 87.331 15.9939 87.5171C16.2392 87.7032 16.5202 87.8393 16.8203 87.9173C17.1204 87.9954 17.4335 88.0138 17.7411 87.9715C51.2127 83.295 85.1952 83.295 118.667 87.9715C118.974 88.0138 119.287 87.9954 119.588 87.9173C119.888 87.8393 120.169 87.7032 120.414 87.5171C120.659 87.331 120.864 87.0987 121.016 86.834C121.167 86.5693 121.263 86.2775 121.298 85.976C121.653 82.7408 122.102 78.6741 122.365 76.2402C122.432 75.6568 122.264 75.0708 121.898 74.6056C121.531 74.1404 120.994 73.8322 120.4 73.7458C103.118 71.2595 85.6726 70.0114 68.204 70.0117Z" fill="white"/>
</g>
</g>
<defs>
<clipPath id="clip0_6101_4417">
<rect width="349" height="88" fill="white" transform="translate(12)"/>
</clipPath>
</defs>
</svg>
